<?xml version="1.0" standalone="no"?>
<!DOCTYPE svg PUBLIC "-//W3C//DTD SVG 20010904//EN"
 "http://www.w3.org/TR/2001/REC-SVG-20010904/DTD/svg10.dtd">
<svg version="1.0" xmlns="http://www.w3.org/2000/svg"
 width="100.000000pt" height="100.000000pt" viewBox="0 0 100.000000 100.000000"
 preserveAspectRatio="xMidYMid meet">
<metadata>
Created by potrace 1.14, written by Peter Selinger 2001-2017
</metadata>
<g transform="translate(0.000000,100.000000) scale(0.100000,-0.100000)"
fill="#000000" stroke="none">
<path d="M438 959 c-36 -14 -35 -35 1 -53 21 -11 30 -24 32 -48 8 -69 1 -83
-44 -95 -49 -13 -66 -3 -97 57 -17 34 -17 36 1 59 23 28 24 37 3 45 -36 14
-154 -67 -154 -106 0 -18 5 -20 34 -15 36 6 54 -7 91 -65 17 -27 16 -28 -17
-67 -18 -23 -39 -41 -47 -41 -8 0 -34 9 -58 21 -38 18 -43 25 -43 54 0 19 -5
37 -12 41 -16 10 -65 -48 -77 -93 -22 -79 -8 -111 32 -71 21 21 27 22 58 13
80 -25 87 -33 87 -90 -1 -59 -11 -69 -87 -81 -33 -5 -42 -2 -66 22 -25 25 -28
26 -37 10 -27 -48 43 -212 76 -179 3 4 6 18 6 33 0 30 34 54 90 65 34 6 37 4
69 -40 31 -44 32 -47 17 -70 -31 -47 -56 -64 -84 -56 -44 13 -54 4 -37 -29 14
-27 80 -79 116 -92 31 -12 42 6 29 44 -12 32 -10 38 15 76 15 23 30 42 34 42
3 0 29 -8 56 -18 48 -17 50 -19 51 -58 1 -58 -4 -69 -37 -81 -70 -27 0 -70 94
-59 29 4 58 13 66 21 12 12 10 17 -17 32 -34 19 -47 54 -40 108 2 24 10 31 47
43 40 13 44 13 62 -4 10 -11 25 -35 33 -56 14 -32 14 -37 1 -48 -22 -19 -19
-50 5 -50 57 0 162 88 140 116 -8 9 -19 10 -35 4 -18 -7 -28 -3 -53 23 -53 56
-55 68 -19 110 l32 37 53 -24 c48 -23 52 -28 52 -60 0 -67 41 -52 79 30 37 78
22 138 -23 95 -28 -26 -36 -26 -95 0 l-48 20 2 60 c2 33 4 61 6 62 48 33 121
35 141 5 10 -15 20 -19 33 -15 15 6 17 15 12 52 -14 101 -87 180 -87 95 0 -23
-8 -31 -49 -49 -65 -28 -71 -27 -104 14 -33 41 -30 59 14 110 26 29 34 33 55
25 22 -9 54 -5 54 7 0 41 -111 125 -152 115 -21 -4 -22 -9 -4 -42 12 -21 12
-29 -1 -55 -8 -16 -24 -40 -35 -51 -19 -21 -21 -21 -69 -6 -48 15 -51 20 -51
67 0 55 4 64 39 85 32 19 35 23 21 36 -19 19 -123 28 -160 13z"/>
</g>
</svg>
